<svg xmlns="http://www.w3.org/2000/svg" width="24" height="24" viewBox="0 0 24 24" fill="none" stroke="currentColor" stroke-width="2" stroke-linecap="round" stroke-linejoin="round">
  <path d="M12 2a10 10 0 1 0 10 10A10 10 0 0 0 12 2zm0 18a8 8 0 1 1 8-8 8 8 0 0 1-8 8z"/>
  <path d="M12 6a6 6 0 0 0-6 6c0 1.5.5 2.8 1.3 3.9l1.4-1.4C8.2 13.9 8 13.5 8 13a4 4 0 0 1 4-4 4 4 0 0 1 4 4c0 .5-.2 1-.5 1.4l1.4 1.4c.8-1.1 1.3-2.4 1.3-3.9a6 6 0 0 0-6-6z"/>
  <path d="M12 10a3 3 0 0 0-3 3c0 .4.1.7.2 1l1.8-1.8V12a1 1 0 0 1 1-1 1 1 0 0 1 1 1v.2l1.8 1.8c.1-.3.2-.6.2-1a3 3 0 0 0-3-3z"/>
  <circle cx="12" cy="13" r="1"/>
</svg>